<svg xmlns="http://www.w3.org/2000/svg" width="1200" height="800" viewBox="0 0 1200 800" role="img" aria-labelledby="title desc">
  <title id="title">BuatCuan Example Image</title>
  <desc id="desc">Premium visual example for BuatCuan course and affiliate dashboard.</desc>
  <defs>
    <radialGradient id="bg" cx="40%" cy="18%" r="90%">
      <stop stop-color="#063B1F"/>
      <stop offset=".45" stop-color="#101412"/>
      <stop offset="1" stop-color="#070707"/>
    </radialGradient>
    <linearGradient id="primary" x1="180" y1="110" x2="980" y2="690">
      <stop stop-color="#00C853"/>
      <stop offset="1" stop-color="#00FF7A"/>
    </linearGradient>
    <linearGradient id="gold" x1="770" y1="120" x2="1080" y2="440">
      <stop stop-color="#FFE86A"/>
      <stop offset="1" stop-color="#FFB800"/>
    </linearGradient>
    <filter id="blur"><feGaussianBlur stdDeviation="42"/></filter>
  </defs>
  <rect width="1200" height="800" fill="url(#bg)"/>
  <circle cx="930" cy="145" r="190" fill="#00C853" opacity=".23" filter="url(#blur)"/>
  <circle cx="210" cy="680" r="210" fill="#FFD700" opacity=".12" filter="url(#blur)"/>
  <rect x="80" y="74" width="1040" height="652" rx="46" fill="#111" stroke="#2B2B2B"/>
  <rect x="124" y="126" width="430" height="548" rx="36" fill="#171717" stroke="#2B2B2B"/>
  <rect x="158" y="158" width="362" height="210" rx="28" fill="url(#primary)" opacity=".92"/>
  <circle cx="339" cy="263" r="54" fill="#FFFFFF" opacity=".18"/>
  <path d="M325 232v64l52-32-52-32Z" fill="#FFFFFF"/>
  <text x="158" y="420" fill="#FFFFFF" font-family="Plus Jakarta Sans, Arial, sans-serif" font-size="34" font-weight="800">Auto FYP TikTok</text>
  <text x="158" y="462" fill="#A8A8A8" font-family="Plus Jakarta Sans, Arial, sans-serif" font-size="20">Strategi 7 hari pertama untuk mulai menghasilkan.</text>
  <rect x="158" y="512" width="152" height="44" rx="22" fill="#00C853"/>
  <text x="190" y="541" fill="#071007" font-family="Plus Jakarta Sans, Arial, sans-serif" font-size="18" font-weight="800">Mulai</text>
  <rect x="598" y="126" width="454" height="152" rx="30" fill="#171717" stroke="#2B2B2B"/>
  <text x="634" y="176" fill="#A8A8A8" font-family="Plus Jakarta Sans, Arial, sans-serif" font-size="18">Revenue Bulan Ini</text>
  <text x="634" y="236" fill="#FFFFFF" font-family="Plus Jakarta Sans, Arial, sans-serif" font-size="52" font-weight="800">Rp 12.8jt</text>
  <rect x="850" y="174" width="160" height="58" rx="29" fill="url(#gold)"/>
  <text x="886" y="211" fill="#121212" font-family="Plus Jakarta Sans, Arial, sans-serif" font-size="20" font-weight="800">+38%</text>
  <rect x="598" y="314" width="214" height="168" rx="28" fill="#171717" stroke="#2B2B2B"/>
  <rect x="838" y="314" width="214" height="168" rx="28" fill="#171717" stroke="#2B2B2B"/>
  <text x="630" y="365" fill="#A8A8A8" font-family="Plus Jakarta Sans, Arial, sans-serif" font-size="18">Affiliate</text>
  <text x="630" y="425" fill="#FFFFFF" font-family="Plus Jakarta Sans, Arial, sans-serif" font-size="42" font-weight="800">184</text>
  <text x="870" y="365" fill="#A8A8A8" font-family="Plus Jakarta Sans, Arial, sans-serif" font-size="18">Materi Selesai</text>
  <text x="870" y="425" fill="#FFFFFF" font-family="Plus Jakarta Sans, Arial, sans-serif" font-size="42" font-weight="800">72%</text>
  <rect x="598" y="520" width="454" height="154" rx="30" fill="#171717" stroke="#2B2B2B"/>
  <text x="634" y="572" fill="#FFFFFF" font-family="Plus Jakarta Sans, Arial, sans-serif" font-size="28" font-weight="800">Belajar. Praktek. Cuan.</text>
  <text x="634" y="615" fill="#A8A8A8" font-family="Plus Jakarta Sans, Arial, sans-serif" font-size="20">Platform membership untuk creator digital Indonesia.</text>
</svg>
