<svg xmlns="http://www.w3.org/2000/svg" width="64" height="64" viewBox="0 0 256 256">
  <rect width="256" height="256" rx="56" fill="#0D0D0D"/>
  <rect x="18" y="18" width="220" height="220" rx="46" fill="#00C853"/>
  <path d="M72 176V78h65c28 0 45 13 45 35 0 13-7 24-20 30 16 5 25 17 25 32 0 25-19 39-51 39H72Zm37-59h27c8 0 13-4 13-11s-5-11-13-11h-27v22Zm0 60h31c9 0 14-4 14-12s-5-12-14-12h-31v24Z" fill="#091109"/>
  <path d="M155 57c-7 0-13 6-13 13v14h-20V70c0-7-6-13-13-13s-13 6-13 13v14H78c-7 0-12 5-12 12s5 12 12 12h18v14H78c-7 0-12 5-12 12s5 12 12 12h18v14c0 7 6 13 13 13s13-6 13-13v-14h20v14c0 7 6 13 13 13s13-6 13-13v-14h10c7 0 12-5 12-12s-5-12-12-12h-10v-14h10c7 0 12-5 12-12s-5-12-12-12h-10V70c0-7-6-13-13-13Zm-33 51h20v14h-20v-14Z" fill="#FFD700"/>
</svg>
